Coordinates
version=1
nRows=14
nColumns=40
inDegrees=yes

Units are S.I. units (second, meters, Newtons, ...)
If the header above contains a line with 'inDegrees', this indicates whether rotational values are in degrees (yes) or radians (no).

endheader
time	pelvis_tilt	pelvis_list	pelvis_rotation	pelvis_tx	pelvis_ty	pelvis_tz	hip_flexion_r	hip_adduction_r	hip_rotation_r	knee_angle_r	knee_angle_r_beta	ankle_angle_r	subtalar_angle_r	mtp_angle_r	hip_flexion_l	hip_adduction_l	hip_rotation_l	knee_angle_l	knee_angle_l_beta	ankle_angle_l	subtalar_angle_l	mtp_angle_l	lumbar_extension	lumbar_bending	lumbar_rotation	arm_flex_r	arm_add_r	arm_rot_r	elbow_flex_r	pro_sup_r	wrist_flex_r	wrist_dev_r	arm_flex_l	arm_add_l	arm_rot_l	elbow_flex_l	pro_sup_l	wrist_flex_l	wrist_dev_l
      4.97000000	    -13.08572117	      2.83469153	     -7.09094878	     -0.18708604	      1.03225038	     -0.88329944	     15.86464041	    -10.91070694	    -13.51798402	      3.79540614	      0.06624233	    -37.83501998	      0.00000000	      0.00000000	     10.69079028	     -9.13496308	    -19.32627779	      0.70394021	      0.01228607	    -37.69035153	      0.00000000	      0.00000000	     -9.73872519	     -3.79573919	     -5.27207619	    -35.01844498	    -51.28715256	      3.44042276	    130.24343468	     87.58209958	      0.00000000	      0.00000000	    -65.23662995	    -16.82897571	    -17.51632676	    131.38028970	     88.22373180	      0.00000000	      0.00000000
      4.97500000	    -13.02205166	      2.74739782	     -7.15257271	     -0.18249904	      1.04550384	     -0.88272952	     14.33877554	    -10.42720366	    -15.02483471	      1.28826267	      0.02248443	    -38.09366872	      0.00000000	      0.00000000	     10.13379267	     -8.99418941	    -20.98545807	      0.34790837	      0.00607215	    -36.97435885	      0.00000000	      0.00000000	     -9.11190167	     -3.74756457	     -5.28271360	    -35.93630545	    -50.98447559	      2.67029957	    130.62466618	     87.55324229	      0.00000000	      0.00000000	    -66.03020353	    -15.74756970	    -18.12713854	    131.78271650	     88.20766932	      0.00000000	      0.00000000
      4.98000000	    -12.92387119	      2.84226998	     -7.32881774	     -0.17829607	      1.05879664	     -0.88230632	     13.49993981	    -10.29271713	    -17.35766639	      0.49754374	      0.00868378	    -36.54664472	      0.00000000	      0.00000000	      9.54605721	     -8.62632226	    -23.50525954	      0.25055651	      0.00437304	    -35.23123154	      0.00000000	      0.00000000	     -8.69563540	     -3.71112938	     -3.60106612	    -40.56586925	    -48.74486833	     -1.70851136	    131.87651951	     87.63801018	      0.00000000	      0.00000000	    -65.56668110	    -16.93405109	    -17.68826013	    131.95968566	     88.20890431	      0.00000000	      0.00000000
      4.98500000	    -13.05178837	      2.87331320	     -7.35888386	     -0.17463208	      1.07156227	     -0.88192816	     13.02876802	    -10.10395992	    -20.60951862	      0.38137106	      0.00665618	    -34.80582410	      0.00000000	      0.00000000	      9.11366100	     -8.23608504	    -25.34582746	      0.23966138	      0.00418288	    -33.86949053	      0.00000000	      0.00000000	     -7.93587849	     -3.73405567	     -3.67981363	    -41.23005187	    -48.31041962	     -2.22523059	    132.31036830	     87.59046439	      0.00000000	      0.00000000	    -66.17001801	    -16.09224384	    -18.17078540	    132.15862875	     88.15700120	      0.00000000	      0.00000000
      4.99000000	    -12.82283582	      2.68757564	     -7.38738512	     -0.17135110	      1.08460920	     -0.88151625	     12.13649817	     -9.70700689	    -24.04026701	      0.37503947	      0.00654567	    -34.13842000	      0.00000000	      0.00000000	      8.29712818	     -8.00994331	    -26.83303866	      0.26933080	      0.00470071	    -34.07900833	      0.00000000	      0.00000000	     -7.76809872	     -3.37632952	     -2.33575039	    -44.81711990	    -46.22738789	     -6.01114113	    133.49820845	     87.77056808	      0.00000000	      0.00000000	    -65.57950632	    -17.34424517	    -17.99956818	    132.25209450	     88.21481638	      0.00000000	      0.00000000
      4.99500000	    -12.74712053	      2.54693577	     -7.42513508	     -0.16910975	      1.09718001	     -0.88122509	     11.45691730	     -9.33843062	    -26.62834441	      0.44155518	      0.00770659	    -34.29940720	      0.00000000	      0.00000000	      7.69282435	     -7.73000377	    -27.39097697	      0.34345324	      0.00599439	    -36.07604456	      0.00000000	      0.00000000	     -7.39520205	     -3.20293129	     -2.41002348	    -45.20093746	    -45.93344118	     -6.74290923	    134.00234511	     87.69500779	      0.00000000	      0.00000000	    -65.88184995	    -16.80198663	    -18.52542887	    132.37736159	     88.17111209	      0.00000000	      0.00000000
      5.00000000	    -12.59353734	      2.39981054	     -7.41680229	     -0.16735304	      1.10991299	     -0.88102508	     10.63803224	     -8.93794638	    -27.93080705	      0.59023619	      0.01030156	    -35.88033594	      0.00000000	      0.00000000	      7.02859528	     -7.42985144	    -26.86090122	      0.53503728	      0.00933816	    -38.21202816	      0.00000000	      0.00000000	     -7.23979627	     -2.90142565	     -1.62814359	    -46.96008564	    -44.43562575	     -8.85393276	    134.70980187	     87.78642055	      0.00000000	      0.00000000	    -65.20581814	    -17.77842958	    -18.32038873	    132.16518986	     88.20096902	      0.00000000	      0.00000000
      5.00500000	    -12.46635681	      2.16082208	     -7.14856905	     -0.16605921	      1.12209574	     -0.88099162	      9.78872123	     -8.43843434	    -28.11678052	      0.91194823	      0.01591650	    -37.08710746	      0.00000000	      0.00000000	      6.66380436	     -7.21567684	    -25.66464158	      1.31359807	      0.02292661	    -39.12940019	      0.00000000	      0.00000000	     -7.08972939	     -2.56649207	     -1.59325042	    -47.60770968	    -43.59142747	     -9.89756690	    135.16645968	     87.81567041	      0.00000000	      0.00000000	    -64.81473949	    -18.16753124	    -18.35328753	    131.94424043	     88.18977574	      0.00000000	      0.00000000
      5.01000000	    -12.23425672	      1.98524056	     -6.65468586	     -0.16523237	      1.13430914	     -0.88095402	      8.90616348	     -7.95812291	    -27.38558615	      1.61636242	      0.02821085	    -37.87824918	      0.00000000	      0.00000000	      6.78358494	     -7.04133188	    -24.58445851	      3.31233674	      0.05781118	    -39.36480866	      0.00000000	      0.00000000	     -7.07092022	     -2.34463470	     -1.96560405	    -47.67601622	    -42.97562853	    -10.20881293	    135.34286305	     87.76093004	      0.00000000	      0.00000000	    -64.44639973	    -18.52955704	    -18.47588823	    131.71741438	     88.17244648	      0.00000000	      0.00000000
      5.01500000	    -12.10506952	      1.69859457	     -5.96207535	     -0.16423590	      1.14578930	     -0.88120840	      8.26539562	     -7.42532680	    -26.70272678	      2.66237697	      0.04646724	    -38.10362692	      0.00000000	      0.00000000	      7.15020514	     -6.94591051	    -23.58710027	      5.45881613	      0.09527431	    -39.46067734	      0.00000000	      0.00000000	     -6.98538070	     -1.94345461	     -2.30969283	    -48.11795815	    -42.04861790	    -10.79532976	    135.54984982	     87.79006025	      0.00000000	      0.00000000	    -63.92926304	    -19.24715915	    -18.16763788	    131.23510054	     88.18180956	      0.00000000	      0.00000000
      5.02000000	    -11.62958990	      1.58950282	     -5.37138382	     -0.16280604	      1.15722001	     -0.88194440	      7.37852897	     -7.12870845	    -25.91742544	      3.80286070	      0.06637244	    -38.23403423	      0.00000000	      0.00000000	      6.93962542	     -6.42810694	    -22.76881700	      6.96404465	      0.12154551	    -39.48901912	      0.00000000	      0.00000000	     -7.24036944	     -1.65770514	     -2.11300283	    -49.39452986	    -40.63416851	    -11.99572307	    135.89306657	     87.82087964	      0.00000000	      0.00000000	    -62.94802610	    -20.65910060	    -17.31097390	    130.67340213	     88.16771512	      0.00000000	      0.00000000
      5.02500000	    -10.99671163	      1.52418357	     -4.90647295	     -0.16078595	      1.16823617	     -0.88305593	      6.29982231	     -6.85474723	    -25.00557715	      4.71127494	      0.08222726	    -38.45258615	      0.00000000	      0.00000000	      6.30601571	     -5.73598785	    -21.93027623	      7.89943669	      0.13787118	    -39.50497235	      0.00000000	      0.00000000	     -7.57776418	     -1.48007412	     -2.62920813	    -49.50167897	    -40.52836997	    -11.90785732	    135.87640034	     87.83771456	      0.00000000	      0.00000000	    -62.59703020	    -20.95715653	    -16.75123816	    130.13709272	     88.18034603	      0.00000000	      0.00000000
      5.03000000	    -10.26526153	      1.57563453	     -4.51490077	     -0.15815001	      1.17908213	     -0.88423741	      4.97630650	     -6.61884392	    -23.87711424	      5.12548948	      0.08945667	    -38.56650384	      0.00000000	      0.00000000	      5.21456141	     -4.81243100	    -20.60287157	      7.96246790	      0.13897128	    -39.49481938	      0.00000000	      0.00000000	     -7.95982801	     -1.37946305	     -2.69715410	    -50.18206006	    -40.03001894	    -12.06587597	    135.85655530	     87.82650108	      0.00000000	      0.00000000	    -61.99687694	    -21.82346228	    -15.69925625	    129.46387994	     88.16506111	      0.00000000	      0.00000000
      5.03500000	     -9.52105483	      1.62041685	     -4.25560379	     -0.15549528	      1.18971628	     -0.88523887	      3.55460392	     -6.32597602	    -22.79334279	      5.15642372	      0.08999657	    -38.61976234	      0.00000000	      0.00000000	      3.91428716	     -3.89943242	    -19.50448744	      7.52177600	      0.13127976	    -39.46344613	      0.00000000	      0.00000000	     -8.35695965	     -1.27003734	     -2.68355096	    -50.80387615	    -39.60924559	    -12.04625097	    135.80235741	     87.84375199	      0.00000000	      0.00000000	    -61.36068874	    -22.67099172	    -14.67754690	    128.75871515	     88.16076015	      0.00000000	      0.00000000
